TITLE ""
FILE "P1Q_t_0320-0328.mp3" MP3
  TRACK 01 AUDIO
    TITLE "P1Q_t_0320-0328_01"
    INDEX 01 00:00:00
  TRACK 02 AUDIO
    TITLE "P1Q_t_0320-0328_02"
    INDEX 01 00:01:14
  TRACK 03 AUDIO
    TITLE "P1Q_t_0320-0328_03"
    INDEX 01 00:01:35
  TRACK 04 AUDIO
    TITLE "P1Q_t_0320-0328_04"
    INDEX 01 00:03:05
  TRACK 05 AUDIO
    TITLE "P1Q_t_0320-0328_05"
    INDEX 01 00:03:22
  TRACK 06 AUDIO
    TITLE "P1Q_t_0320-0328_06"
    INDEX 01 00:09:45
  TRACK 07 AUDIO
    TITLE "P1Q_t_0320-0328_07"
    INDEX 01 00:10:15
  TRACK 08 AUDIO
    TITLE "P1Q_t_0320-0328_08"
    INDEX 01 00:11:22
  TRACK 09 AUDIO
    TITLE "P1Q_t_0320-0328_09"
    INDEX 01 00:11:67
  TRACK 10 AUDIO
    TITLE "P1Q_t_0320-0328_10"
    INDEX 01 00:12:72
  TRACK 11 AUDIO
    TITLE "P1Q_t_0320-0328_11"
    INDEX 01 00:13:19
  TRACK 12 AUDIO
    TITLE "P1Q_t_0320-0328_12"
    INDEX 01 00:16:58
  TRACK 13 AUDIO
    TITLE "P1Q_t_0320-0328_13"
    INDEX 01 00:17:01
  TRACK 14 AUDIO
    TITLE "P1Q_t_0320-0328_14"
    INDEX 01 00:21:18
  TRACK 15 AUDIO
    TITLE "P1Q_t_0320-0328_15"
    INDEX 01 00:21:65
  TRACK 16 AUDIO
    TITLE "P1Q_t_0320-0328_16"
    INDEX 01 00:23:15
  TRACK 17 AUDIO
    TITLE "P1Q_t_0320-0328_17"
    INDEX 01 00:23:37
  TRACK 18 AUDIO
    TITLE "P1Q_t_0320-0328_18"
    INDEX 01 00:25:63
  TRACK 19 AUDIO
    TITLE "P1Q_t_0320-0328_19"
    INDEX 01 00:26:08
  TRACK 20 AUDIO
    TITLE "P1Q_t_0320-0328_20"
    INDEX 01 00:30:11
  TRACK 21 AUDIO
    TITLE "P1Q_t_0320-0328_21"
    INDEX 01 00:30:56
  TRACK 22 AUDIO
    TITLE "P1Q_t_0320-0328_22"
    INDEX 01 00:31:60
  TRACK 23 AUDIO
    TITLE "P1Q_t_0320-0328_23"
    INDEX 01 00:32:08
  TRACK 24 AUDIO
    TITLE "P1Q_t_0320-0328_24"
    INDEX 01 00:35:36
  TRACK 25 AUDIO
    TITLE "P1Q_t_0320-0328_25"
    INDEX 01 00:35:56
  TRACK 26 AUDIO
    TITLE "P1Q_t_0320-0328_26"
    INDEX 01 00:41:27
  TRACK 27 AUDIO
    TITLE "P1Q_t_0320-0328_27"
    INDEX 01 00:41:72
  TRACK 28 AUDIO
    TITLE "P1Q_t_0320-0328_28"
    INDEX 01 00:43:04
  TRACK 29 AUDIO
    TITLE "P1Q_t_0320-0328_29"
    INDEX 01 00:43:26
  TRACK 30 AUDIO
    TITLE "P1Q_t_0320-0328_30"
    INDEX 01 00:46:50
  TRACK 31 AUDIO
    TITLE "P1Q_t_0320-0328_31"
    INDEX 01 00:46:69
  TRACK 32 AUDIO
    TITLE "P1Q_t_0320-0328_32"
    INDEX 01 00:51:29
  TRACK 33 AUDIO
    TITLE "P1Q_t_0320-0328_33"
    INDEX 01 00:51:74
  TRACK 34 AUDIO
    TITLE "P1Q_t_0320-0328_34"
    INDEX 01 00:53:18
  TRACK 35 AUDIO
    TITLE "P1Q_t_0320-0328_35"
    INDEX 01 00:53:38
  TRACK 36 AUDIO
    TITLE "P1Q_t_0320-0328_36"
    INDEX 01 00:54:47
  TRACK 37 AUDIO
    TITLE "P1Q_t_0320-0328_37"
    INDEX 01 00:54:67
  TRACK 38 AUDIO
    TITLE "P1Q_t_0320-0328_38"
    INDEX 01 00:59:46
  TRACK 39 AUDIO
    TITLE "P1Q_t_0320-0328_39"
    INDEX 01 01:00:16
  TRACK 40 AUDIO
    TITLE "P1Q_t_0320-0328_40"
    INDEX 01 01:01:14
  TRACK 41 AUDIO
    TITLE "P1Q_t_0320-0328_41"
    INDEX 01 01:01:35
  TRACK 42 AUDIO
    TITLE "P1Q_t_0320-0328_42"
    INDEX 01 01:05:29
  TRACK 43 AUDIO
    TITLE "P1Q_t_0320-0328_43"
    INDEX 01 01:05:51
  TRACK 44 AUDIO
    TITLE "P1Q_t_0320-0328_44"
    INDEX 01 01:10:50
  TRACK 45 AUDIO
    TITLE "P1Q_t_0320-0328_45"
    INDEX 01 01:11:22
  TRACK 46 AUDIO
    TITLE "P1Q_t_0320-0328_46"
    INDEX 01 01:12:49
  TRACK 47 AUDIO
    TITLE "P1Q_t_0320-0328_47"
    INDEX 01 01:12:69
  TRACK 48 AUDIO
    TITLE "P1Q_t_0320-0328_48"
    INDEX 01 01:16:06
  TRACK 49 AUDIO
    TITLE "P1Q_t_0320-0328_49"
    INDEX 01 01:16:25
  TRACK 50 AUDIO
    TITLE "P1Q_t_0320-0328_50"
    INDEX 01 01:22:32
  TRACK 51 AUDIO
    TITLE "P1Q_t_0320-0328_51"
    INDEX 01 01:23:02
  TRACK 52 AUDIO
    TITLE "P1Q_t_0320-0328_52"
    INDEX 01 01:24:21
  TRACK 53 AUDIO
    TITLE "P1Q_t_0320-0328_53"
    INDEX 01 01:24:42
  TRACK 54 AUDIO
    TITLE "P1Q_t_0320-0328_54"
    INDEX 01 01:27:07
  TRACK 55 AUDIO
    TITLE "P1Q_t_0320-0328_55"
    INDEX 01 01:27:31
  TRACK 56 AUDIO
    TITLE "P1Q_t_0320-0328_56"
    INDEX 01 01:32:18
